<svg version="1.1" id="Layer_1" xmlns="http://www.w3.org/2000/svg" xmlns:xlink="http://www.w3.org/1999/xlink" x="0px" y="0px"
	 width="100%" viewBox="0 0 1000 1002" enable-background="new 0 0 1000 1002" xml:space="preserve">
<path fill="#000000" opacity="1.000000" stroke="none" 
	d="
M440.000000,1003.000000 
	C293.736725,1003.000000 147.473465,1003.000000 1.000000,1003.000000 
	C1.000000,851.642639 1.000000,700.285217 1.412658,548.307678 
	C2.206784,548.365540 2.836465,549.009888 2.933210,549.726196 
	C4.990978,564.962463 6.255260,580.349670 9.186904,595.413025 
	C12.730715,613.621765 16.732416,631.853027 22.263966,649.533997 
	C28.637720,669.906921 36.576626,689.817627 44.480995,709.672241 
	C48.217194,719.057068 53.456821,727.843445 58.301651,737.469971 
	C69.670685,730.760742 80.580307,724.322632 91.540962,717.854431 
	C90.429901,714.847107 89.897064,712.771973 88.941544,710.914246 
	C76.209373,686.160522 66.814186,660.104736 58.845383,633.511719 
	C52.605610,612.688660 47.443348,591.603088 45.003815,569.947510 
	C43.257725,554.447632 40.837776,538.963257 40.224575,523.412537 
	C39.565113,506.688782 40.134857,489.863342 41.155952,473.142578 
	C42.043713,458.605225 44.127483,444.128418 46.006481,429.666901 
	C49.148518,405.484589 55.110504,381.896912 63.253689,358.986206 
	C70.125320,339.653015 78.351578,320.799072 86.070778,301.770538 
	C88.953957,294.663239 92.004860,287.619476 95.171669,280.633972 
	C96.415131,277.891052 96.245964,276.344727 93.388885,274.618011 
	C85.138214,269.631592 77.116913,264.264160 69.032196,259.005341 
	C65.849022,256.934845 64.390846,258.694305 62.894386,261.329834 
	C49.454403,285.000061 38.299381,309.718201 29.335604,335.393494 
	C21.700035,357.264374 14.705379,379.359314 10.922629,402.289124 
	C8.075638,419.546661 5.650782,436.873627 2.932114,454.153046 
	C2.770853,455.177979 1.665856,456.054443 1.000007,457.000000 
	C1.000000,305.070282 1.000000,153.140533 1.000000,1.000000 
	C157.357346,1.000000 313.714783,1.000000 470.518616,1.412680 
	C463.373505,2.877414 455.770538,3.853512 448.192871,4.996806 
	C430.565491,7.656348 412.943573,10.354358 395.337402,13.149774 
	C392.725464,13.564480 390.346497,14.984098 391.103455,18.183886 
	C393.459412,28.142651 395.886261,38.090099 398.597595,47.956207 
	C399.479797,51.166367 401.660431,52.355717 405.538116,51.396358 
	C429.717987,45.414177 454.503845,43.509624 479.233948,42.240784 
	C496.791473,41.339947 514.484009,42.230080 532.076294,43.115669 
	C545.927734,43.812946 559.827515,45.043892 573.510986,47.247566 
	C596.669373,50.977154 619.425354,56.458088 641.857239,63.619450 
	C680.780884,76.045784 717.267273,93.368073 751.339600,115.749489 
	C773.626831,130.389450 794.625427,146.758789 814.112732,165.032990 
	C829.750916,179.697769 844.713989,194.979279 857.611084,212.139618 
	C869.826050,228.392288 881.839050,244.798691 893.769348,261.261749 
	C896.527954,265.068420 899.478455,265.948853 903.513245,263.761536 
	C911.521484,259.420197 919.458740,254.937317 927.585266,250.829330 
	C931.308960,248.946976 931.236572,247.041046 929.321350,243.806351 
	C908.419434,208.503601 881.825928,177.710281 853.621155,148.211792 
	C847.427490,141.734070 840.829285,135.610306 834.094971,129.690292 
	C824.903259,121.610023 815.919373,113.141357 805.923218,106.161209 
	C787.223755,93.103638 768.331360,80.186264 748.631592,68.738083 
	C731.352783,58.696850 713.247131,49.814899 694.796570,42.124542 
	C674.538940,33.680984 653.787292,26.040943 632.662415,20.167868 
	C611.896301,14.394553 590.466675,10.845276 569.183350,7.155618 
	C556.349365,4.930735 543.235779,4.330032 530.261230,2.879358 
	C529.447632,2.788386 528.751038,1.650701 528.000000,0.999993 
	C685.594299,1.000000 843.188660,1.000000 1001.000000,1.000000 
	C1001.000000,154.024017 1001.000000,307.048126 1000.606140,460.758820 
	C999.476501,457.168060 998.615906,452.907776 998.028320,448.610168 
	C996.278870,435.814545 995.209290,422.896484 992.824890,410.223694 
	C988.737549,388.500092 983.974609,366.849609 975.874207,346.211639 
	C966.607910,322.603210 956.608154,299.283112 946.990601,275.811707 
	C945.398804,271.926941 943.075439,270.908325 939.300049,272.893982 
	C930.515564,277.514130 921.722107,282.121643 912.838318,286.545654 
	C910.225708,287.846741 909.525574,289.028534 910.866882,291.870819 
	C915.717957,302.150177 920.298340,312.557190 924.984558,322.914307 
	C934.454346,343.843292 941.598938,365.631104 946.789917,387.916992 
	C951.143677,406.608368 953.996277,425.673401 956.929565,444.663147 
	C958.829956,456.965637 960.536804,469.410828 960.820068,481.826569 
	C961.393677,506.971619 961.799988,532.186218 957.970154,557.177795 
	C955.527649,573.116333 953.023254,589.057007 950.001038,604.892639 
	C943.558594,638.649292 931.259521,670.445496 916.842224,701.491272 
	C912.487854,710.867615 908.143311,720.248535 903.564941,730.122070 
	C913.516968,735.680481 922.764038,740.804077 931.965759,746.007996 
	C934.995728,747.721558 937.283203,747.229492 938.964417,744.163086 
	C942.632935,737.472351 946.681641,730.957581 949.890564,724.052795 
	C962.917908,696.021118 975.903259,667.926575 983.027222,637.653259 
	C987.348145,619.291565 991.409119,600.850281 994.865417,582.310303 
	C996.958801,571.081299 997.639038,559.590881 999.081604,548.234192 
	C999.184875,547.421326 1000.336060,546.741638 1001.000000,546.000000 
	C1001.000000,698.261169 1001.000000,850.522278 1001.000000,1003.000000 
	C852.642639,1003.000000 704.285217,1003.000000 555.485413,1002.583618 
	C556.059265,1001.783264 557.051208,1001.159241 558.095581,1001.053772 
	C565.499268,1000.305847 572.979431,1000.072266 580.309021,998.891418 
	C590.850647,997.193115 601.285156,994.829956 612.658997,992.573303 
	C609.294373,981.103210 606.297363,970.301575 602.816833,959.658081 
	C602.300659,958.079712 599.468750,956.204773 597.767700,956.261108 
	C592.179199,956.446350 586.619385,957.468506 581.046143,958.149353 
	C562.360168,960.432068 543.726379,963.683899 524.971375,964.703491 
	C506.920502,965.684814 488.686462,965.140686 470.638428,963.822144 
	C451.890656,962.452515 433.134369,960.112915 414.624115,956.830994 
	C386.080933,951.770203 358.353638,943.433472 331.402588,932.689697 
	C305.970947,922.551575 281.485687,910.406006 258.254791,895.961060 
	C233.619629,880.642822 209.762207,864.141663 189.103271,843.542419 
	C179.090210,833.558289 169.093201,823.524658 159.659012,813.002258 
	C149.388535,801.547058 139.429153,789.771179 129.988190,777.626709 
	C121.873032,767.187622 114.552353,756.117920 107.158035,745.140015 
	C105.059227,742.023987 102.334679,741.008423 99.556625,742.428223 
	C90.759689,746.924011 82.215599,751.915405 73.585144,756.735596 
	C71.018951,758.168762 70.817482,760.219727 72.252663,762.574158 
	C75.872177,768.512146 79.324104,774.563354 83.182060,780.342957 
	C97.820625,802.272766 114.038048,823.036499 132.010818,842.279846 
	C153.553879,865.345947 176.666992,886.773926 202.090378,905.647644 
	C233.891586,929.256104 267.730103,949.419250 304.353180,964.387146 
	C326.814270,973.567017 349.844482,981.727295 373.212830,988.203186 
	C394.136139,994.001404 415.876251,996.846924 437.238495,1001.083496 
	C438.246063,1001.283325 439.083405,1002.341553 440.000000,1003.000000 
M332.671173,293.133301 
	C315.728516,306.661530 300.396637,321.850586 287.500702,339.256439 
	C267.834351,365.800446 252.678238,394.682739 243.595505,426.645935 
	C237.785019,447.093750 234.006210,467.870087 233.123337,489.050537 
	C232.300842,508.782898 233.337738,528.458130 236.861465,548.014282 
	C241.442169,573.436707 249.075775,597.839905 260.635986,620.867249 
	C270.532715,640.581055 282.507202,658.971558 296.994812,675.825623 
	C309.388458,690.243713 322.898285,703.320312 337.905731,714.835083 
	C358.784088,730.854492 381.737274,743.207642 406.286011,752.750671 
	C432.612091,762.984741 459.958221,768.257202 487.993866,769.883972 
	C508.577728,771.078369 529.154541,769.532471 549.418274,765.798157 
	C586.524963,758.959961 620.683472,744.620544 651.971680,723.560059 
	C674.550232,708.362061 694.169922,689.942078 711.007385,668.539551 
	C728.016113,646.919250 741.414124,623.351135 751.359314,597.636047 
	C761.546021,571.296509 767.155334,544.050781 768.813660,516.047607 
	C769.872253,498.171051 768.856445,480.266602 766.180115,462.436646 
	C762.068542,435.045227 754.248108,408.826172 741.921387,384.114227 
	C725.106445,350.404633 702.807678,320.981628 673.537903,296.743683 
	C647.956421,275.559967 619.834167,259.223114 588.662781,248.195465 
	C567.711060,240.783249 546.021057,236.585617 523.774719,234.853821 
	C503.649811,233.287155 483.607208,233.506104 463.687225,236.214050 
	C441.019287,239.295547 418.952087,245.005447 397.855713,254.122025 
	C374.614807,264.165375 352.884216,276.693909 332.671173,293.133301 
M294.699005,123.132599 
	C282.787048,130.293716 270.336670,136.705704 259.088440,144.790298 
	C241.919205,157.130615 225.375549,170.376190 209.008072,183.777023 
	C203.739288,188.090820 199.864136,194.106766 196.136185,198.433258 
	C204.234589,206.842987 213.300842,216.257767 222.181976,225.480286 
	C231.668823,217.260956 241.051605,208.857086 250.727188,200.805069 
	C272.176514,182.954926 295.460693,167.818420 320.202148,154.958542 
	C351.188843,138.852585 383.810608,127.297707 417.857147,119.432228 
	C441.043701,114.075630 464.484039,111.578606 488.164124,111.099594 
	C500.105682,110.858040 512.091797,111.305634 524.015564,112.085602 
	C538.523438,113.034599 553.111816,113.880264 567.442261,116.168098 
	C592.634399,120.189987 617.177734,127.129303 640.888367,136.555023 
	C655.948547,142.541901 670.703857,149.352524 685.317871,156.372513 
	C690.134888,158.686447 692.519287,156.888199 694.711609,153.465652 
	C698.634888,147.340515 702.567139,141.192398 705.998108,134.787354 
	C711.433044,124.641243 711.110535,124.214134 700.784790,118.916321 
	C675.493591,105.940239 648.510071,97.298203 621.723022,88.207230 
	C591.277039,77.874466 559.729736,73.066772 527.726135,72.201828 
	C504.302643,71.568787 480.782837,71.835648 457.400604,73.257629 
	C441.324646,74.235275 425.228424,77.045288 409.460327,80.494705 
	C369.496704,89.237137 331.490204,103.565346 294.699005,123.132599 
M291.101288,880.457520 
	C292.092682,881.311401 292.957031,882.426575 294.094666,882.979675 
	C309.216156,890.331604 323.938599,898.780396 339.630219,904.618103 
	C362.362640,913.075073 385.622101,920.275024 408.990723,926.818420 
	C433.635132,933.719116 459.199829,935.249756 484.651367,935.800659 
	C502.002594,936.176270 519.449646,935.309998 536.752930,933.824219 
	C554.361145,932.312195 571.989258,930.127258 589.353699,926.875427 
	C622.399536,920.686829 653.919495,909.502502 684.348022,895.254089 
	C709.791016,883.340210 733.912842,869.207458 756.375122,852.283142 
	C767.219910,844.112122 778.156921,836.063538 789.455017,827.659912 
	C781.568848,819.876953 774.225769,812.376404 766.592896,805.183350 
	C761.223877,800.123718 760.208008,800.164001 754.010681,804.496338 
	C743.829041,811.613831 733.737244,818.860474 723.638184,826.095520 
	C699.741882,843.214966 673.808289,856.610718 646.663513,867.654358 
	C615.202393,880.454102 582.848572,890.164185 548.802856,892.900269 
	C533.969543,894.092285 519.064636,894.673279 504.182739,894.894043 
	C491.753204,895.078491 479.302338,894.500977 466.875244,893.942200 
	C458.323761,893.557617 449.658813,893.366943 441.284912,891.802979 
	C417.052307,887.276917 392.804382,882.387512 369.829681,873.225037 
	C351.630341,865.966980 333.908569,857.502441 316.038147,849.433228 
	C309.996307,846.705078 310.002289,846.777283 306.954376,851.902405 
	C302.199860,859.897217 296.967773,867.606689 292.068756,875.518066 
	C291.332672,876.706726 291.304901,878.334045 291.101288,880.457520 
M123.473137,713.952576 
	C123.704124,714.192627 123.998741,714.396790 124.157021,714.677795 
	C136.758896,737.048584 151.064911,758.209656 167.393860,778.085754 
	C181.507309,795.265076 197.026047,810.960449 213.351715,825.990906 
	C228.579788,840.010925 245.202026,852.117004 262.179199,863.846252 
	C266.186127,866.614624 269.136841,866.622803 271.731079,862.703125 
	C276.938568,854.835083 282.050598,846.896484 286.891907,838.801636 
	C287.575623,837.658386 287.123932,834.895264 286.153595,833.877930 
	C283.099304,830.676208 279.639954,827.833435 276.171478,825.059143 
	C263.915009,815.255798 250.773727,806.390259 239.489624,795.580750 
	C224.217041,780.950317 210.074921,765.098938 195.953949,749.318481 
	C180.969864,732.573608 168.869171,713.733765 158.996735,693.583252 
	C149.193848,673.574768 139.355118,653.537659 130.746780,633.003967 
	C123.122688,614.817993 118.805992,595.486267 116.066566,575.939453 
	C113.705559,559.092834 111.854050,542.169678 110.084045,525.248291 
	C109.537720,520.025452 109.999138,514.697205 109.999138,509.025726 
	C97.850525,509.025726 86.223572,508.801636 74.613251,509.143036 
	C70.349022,509.268433 67.266899,511.386353 67.937241,516.799622 
	C69.767181,531.577209 70.958038,546.439941 73.045525,561.177795 
	C74.871071,574.066284 76.768753,587.041809 80.069382,599.601807 
	C85.222855,619.212646 90.545227,638.901245 97.734001,657.820557 
	C104.941673,676.789612 114.523956,694.856323 123.473137,713.952576 
M459.538269,181.999054 
	C470.844299,181.059875 482.150299,180.120712 493.669128,179.163864 
	C493.669128,167.775757 493.669128,156.068527 493.669128,143.552322 
	C484.580933,144.046997 475.804932,144.100098 467.136322,145.091995 
	C452.666809,146.747635 438.149658,148.396912 423.861023,151.136078 
	C395.987213,156.479523 369.396851,166.093338 344.290131,179.154541 
	C326.947235,188.176804 309.905640,198.103394 293.928040,209.331512 
	C278.657166,220.063019 264.670166,232.698715 250.638611,245.086151 
	C242.845627,251.966019 235.645981,259.661224 229.012115,267.678375 
	C218.156799,280.797302 208.071793,294.550873 197.448517,307.866577 
	C195.102417,310.807281 196.223495,312.440002 198.614914,313.832153 
	C205.961655,318.109283 213.503860,322.056030 220.782257,326.442871 
	C224.506134,328.687317 227.094864,328.129272 229.704193,324.838043 
	C237.845200,314.569611 245.583817,303.914978 254.445740,294.301819 
	C266.225098,281.523926 278.785034,269.451050 291.278717,257.353180 
	C296.333618,252.458389 301.817596,247.890305 307.602539,243.891357 
	C317.806915,236.837357 327.998199,229.595917 338.910583,223.774399 
	C354.966797,215.208771 371.357513,207.118027 388.140015,200.103348 
	C410.676971,190.683456 434.728363,186.438797 459.538269,181.999054 
M509.000366,836.622803 
	C508.589264,845.996887 508.178162,855.371033 507.767487,864.736145 
	C510.459106,864.433899 512.388733,864.154785 514.328430,864.009949 
	C523.690002,863.310852 533.187744,863.413025 542.389099,861.808350 
	C560.012939,858.734619 577.587463,855.185730 594.969055,850.957092 
	C628.648438,842.763550 659.652649,828.197083 689.049805,810.010498 
	C709.581116,797.308777 729.177307,783.286377 746.145691,766.111877 
	C761.227417,750.847107 775.580139,734.823975 789.615967,718.583618 
	C794.842834,712.535767 798.435303,705.020264 802.347290,697.938843 
	C803.103394,696.570007 802.572205,693.044922 801.459167,692.320312 
	C793.558777,687.176453 785.398499,682.420593 777.180176,677.791260 
	C776.237732,677.260315 773.802063,677.781311 773.119812,678.648926 
	C768.899780,684.015686 765.145386,689.748352 760.930481,695.119507 
	C753.546021,704.529602 746.506592,714.305237 738.284546,722.939148 
	C728.141907,733.589722 717.226562,743.560974 706.123413,753.226562 
	C690.828979,766.540894 673.757202,777.389587 655.923401,786.991394 
	C629.552917,801.189392 602.067322,812.715942 572.603333,818.536194 
	C554.356873,822.140625 535.843628,824.479553 517.384033,826.878052 
	C510.035797,827.832825 509.017700,828.175903 509.000366,836.622803 
M854.155457,671.756042 
	C850.750854,678.558899 847.550171,685.473145 843.904297,692.144165 
	C831.971619,713.977783 818.333069,734.696960 802.534485,753.942505 
	C795.288086,762.769897 787.732239,771.343201 780.487915,780.172302 
	C779.726257,781.100769 779.438599,783.645630 780.090454,784.320374 
	C788.504395,793.028625 797.128906,801.533386 806.178650,810.567261 
	C809.482544,806.813782 812.442017,803.517212 815.329529,800.158691 
	C823.745789,790.369446 832.628113,780.932495 840.440430,770.681274 
	C865.135498,738.276978 886.125000,703.583557 900.952148,665.555969 
	C908.382263,646.499573 914.829712,626.954956 920.121765,607.202454 
	C924.592407,590.515991 927.157837,573.273254 929.787292,556.156982 
	C931.315491,546.209167 931.319458,536.026184 931.982361,525.947266 
	C932.125427,523.770935 931.831360,521.987366 928.904053,522.005249 
	C917.909729,522.072021 906.913208,521.956238 895.922607,522.171875 
	C894.938904,522.191162 893.312744,523.999634 893.130371,525.157593 
	C890.331787,542.925171 888.191833,560.807983 884.969238,578.494690 
	C879.097168,610.723083 868.561218,641.501343 854.155457,671.756042 
M779.971802,333.525604 
	C788.838257,328.533142 797.704773,323.540710 807.321960,318.125549 
	C806.784119,316.478424 806.325928,313.876648 805.148376,311.656342 
	C794.625610,291.815552 780.337402,274.669159 764.859741,258.721191 
	C751.796753,245.261337 737.435486,233.006577 723.150330,220.801926 
	C706.120972,206.252716 687.518250,193.860748 667.729248,183.323563 
	C641.413879,169.311249 613.297241,160.113434 584.471741,153.094025 
	C569.613464,149.475845 554.542358,146.569992 539.430298,144.226151 
	C532.185364,143.102478 524.621826,144.032623 517.236450,144.032623 
	C517.236450,156.018997 517.236450,167.294083 517.236450,178.547211 
	C525.546326,179.715317 533.604614,181.002914 541.702332,181.954834 
	C559.877930,184.091415 577.532959,188.431213 594.955322,193.920609 
	C620.224548,201.882339 644.227600,212.596069 667.108826,225.971252 
	C695.609436,242.631241 720.623535,263.461060 741.913025,288.594208 
	C752.255310,300.803772 761.425293,314.001007 771.336670,326.585205 
	C773.543335,329.387085 776.635620,331.491486 779.971802,333.525604 
M817.260132,669.997253 
	C819.056335,668.588257 821.696167,667.552307 822.511108,665.709412 
	C827.591370,654.220093 832.624573,642.684387 836.992737,630.911499 
	C845.184753,608.832642 851.019653,586.122009 855.238770,562.908630 
	C858.997070,542.230591 861.466309,521.582703 861.117188,500.522247 
	C860.826782,483.004700 858.841553,465.753174 856.125549,448.482483 
	C852.129150,423.069733 846.231079,398.177094 836.864624,374.220032 
	C832.538574,363.154907 827.282959,352.443329 822.131897,341.723785 
	C821.518494,340.447113 818.259521,339.007080 817.315674,339.546783 
	C808.323975,344.688721 799.567322,350.241791 790.738220,355.679779 
	C791.796631,359.211060 792.459717,362.257050 793.604248,365.109833 
	C802.657043,387.674103 812.026917,410.174561 816.484619,434.201477 
	C819.258850,449.154724 821.418396,464.273560 822.810852,479.414032 
	C823.786377,490.020630 822.900879,500.790405 823.023987,511.485229 
	C823.221985,528.681763 821.053467,545.610046 818.093384,562.516174 
	C813.272339,590.051208 804.704224,616.326233 792.790894,641.568542 
	C786.507568,654.881836 786.565063,654.908630 799.073547,662.607727 
	C799.213074,662.693665 799.304077,662.872803 799.449036,662.933289 
	C805.106384,665.293762 810.767334,667.645630 817.260132,669.997253 
M212.043259,349.447479 
	C202.367905,343.871033 192.692551,338.294556 182.440720,332.385864 
	C175.023224,350.252502 167.916672,367.177338 160.962372,384.164551 
	C149.422974,412.351624 143.908493,441.852081 143.120285,472.157593 
	C142.522522,495.140961 142.779236,518.155640 143.120895,541.149475 
	C143.240631,549.208801 144.319229,557.321594 145.700058,565.281677 
	C149.727554,588.498657 156.870972,610.879761 164.953201,632.952576 
	C168.249344,641.954529 171.941666,650.835999 175.947739,659.545044 
	C178.745880,665.628113 180.895370,666.528137 186.922958,663.969482 
	C194.044830,660.946228 200.897537,657.243713 207.696243,653.523682 
	C211.056671,651.685059 211.514969,648.807800 210.086624,644.990112 
	C202.844986,625.634949 195.248184,606.375610 189.010925,586.691406 
	C182.044769,564.706848 178.719910,541.908813 178.049316,518.831909 
	C177.344666,494.582855 178.556244,470.445618 182.927841,446.499603 
	C186.260620,428.243835 190.216171,410.156525 197.122345,392.903137 
	C202.288269,379.997375 208.163269,367.374847 213.759720,354.642548 
	C214.615707,352.695099 215.505554,350.874512 212.043259,349.447479 
z"/>
<path fill="#004F6E" opacity="1.000000" stroke="none" 
	d="
M440.468689,1003.000000 
	C439.083405,1002.341553 438.246063,1001.283325 437.238495,1001.083496 
	C415.876251,996.846924 394.136139,994.001404 373.212830,988.203186 
	C349.844482,981.727295 326.814270,973.567017 304.353180,964.387146 
	C267.730103,949.419250 233.891586,929.256104 202.090378,905.647644 
	C176.666992,886.773926 153.553879,865.345947 132.010818,842.279846 
	C114.038048,823.036499 97.820625,802.272766 83.182060,780.342957 
	C79.324104,774.563354 75.872177,768.512146 72.252663,762.574158 
	C70.817482,760.219727 71.018951,758.168762 73.585144,756.735596 
	C82.215599,751.915405 90.759689,746.924011 99.556625,742.428223 
	C102.334679,741.008423 105.059227,742.023987 107.158035,745.140015 
	C114.552353,756.117920 121.873032,767.187622 129.988190,777.626709 
	C139.429153,789.771179 149.388535,801.547058 159.659012,813.002258 
	C169.093201,823.524658 179.090210,833.558289 189.103271,843.542419 
	C209.762207,864.141663 233.619629,880.642822 258.254791,895.961060 
	C281.485687,910.406006 305.970947,922.551575 331.402588,932.689697 
	C358.353638,943.433472 386.080933,951.770203 414.624115,956.830994 
	C433.134369,960.112915 451.890656,962.452515 470.638428,963.822144 
	C488.686462,965.140686 506.920502,965.684814 524.971375,964.703491 
	C543.726379,963.683899 562.360168,960.432068 581.046143,958.149353 
	C586.619385,957.468506 592.179199,956.446350 597.767700,956.261108 
	C599.468750,956.204773 602.300659,958.079712 602.816833,959.658081 
	C606.297363,970.301575 609.294373,981.103210 612.658997,992.573303 
	C601.285156,994.829956 590.850647,997.193115 580.309021,998.891418 
	C572.979431,1000.072266 565.499268,1000.305847 558.095581,1001.053772 
	C557.051208,1001.159241 556.059265,1001.783264 555.021545,1002.583618 
	C516.979126,1003.000000 478.958221,1003.000000 440.468689,1003.000000 
z"/>
<path fill="#004F6E" opacity="1.000000" stroke="none" 
	d="
M527.531372,0.999993 
	C528.751038,1.650701 529.447632,2.788386 530.261230,2.879358 
	C543.235779,4.330032 556.349365,4.930735 569.183350,7.155618 
	C590.466675,10.845276 611.896301,14.394553 632.662415,20.167868 
	C653.787292,26.040943 674.538940,33.680984 694.796570,42.124542 
	C713.247131,49.814899 731.352783,58.696850 748.631592,68.738083 
	C768.331360,80.186264 787.223755,93.103638 805.923218,106.161209 
	C815.919373,113.141357 824.903259,121.610023 834.094971,129.690292 
	C840.829285,135.610306 847.427490,141.734070 853.621155,148.211792 
	C881.825928,177.710281 908.419434,208.503601 929.321350,243.806351 
	C931.236572,247.041046 931.308960,248.946976 927.585266,250.829330 
	C919.458740,254.937317 911.521484,259.420197 903.513245,263.761536 
	C899.478455,265.948853 896.527954,265.068420 893.769348,261.261749 
	C881.839050,244.798691 869.826050,228.392288 857.611084,212.139618 
	C844.713989,194.979279 829.750916,179.697769 814.112732,165.032990 
	C794.625427,146.758789 773.626831,130.389450 751.339600,115.749489 
	C717.267273,93.368073 680.780884,76.045784 641.857239,63.619450 
	C619.425354,56.458088 596.669373,50.977154 573.510986,47.247566 
	C559.827515,45.043892 545.927734,43.812946 532.076294,43.115669 
	C514.484009,42.230080 496.791473,41.339947 479.233948,42.240784 
	C454.503845,43.509624 429.717987,45.414177 405.538116,51.396358 
	C401.660431,52.355717 399.479797,51.166367 398.597595,47.956207 
	C395.886261,38.090099 393.459412,28.142651 391.103455,18.183886 
	C390.346497,14.984098 392.725464,13.564480 395.337402,13.149774 
	C412.943573,10.354358 430.565491,7.656348 448.192871,4.996806 
	C455.770538,3.853512 463.373505,2.877414 470.982483,1.412680 
	C489.687561,1.000000 508.375122,1.000000 527.531372,0.999993 
z"/>
<path fill="#22A2C9" opacity="1.000000" stroke="none" 
	d="
M1001.000000,545.531372 
	C1000.336060,546.741638 999.184875,547.421326 999.081604,548.234192 
	C997.639038,559.590881 996.958801,571.081299 994.865417,582.310303 
	C991.409119,600.850281 987.348145,619.291565 983.027222,637.653259 
	C975.903259,667.926575 962.917908,696.021118 949.890564,724.052795 
	C946.681641,730.957581 942.632935,737.472351 938.964417,744.163086 
	C937.283203,747.229492 934.995728,747.721558 931.965759,746.007996 
	C922.764038,740.804077 913.516968,735.680481 903.564941,730.122070 
	C908.143311,720.248535 912.487854,710.867615 916.842224,701.491272 
	C931.259521,670.445496 943.558594,638.649292 950.001038,604.892639 
	C953.023254,589.057007 955.527649,573.116333 957.970154,557.177795 
	C961.799988,532.186218 961.393677,506.971619 960.820068,481.826569 
	C960.536804,469.410828 958.829956,456.965637 956.929565,444.663147 
	C953.996277,425.673401 951.143677,406.608368 946.789917,387.916992 
	C941.598938,365.631104 934.454346,343.843292 924.984558,322.914307 
	C920.298340,312.557190 915.717957,302.150177 910.866882,291.870819 
	C909.525574,289.028534 910.225708,287.846741 912.838318,286.545654 
	C921.722107,282.121643 930.515564,277.514130 939.300049,272.893982 
	C943.075439,270.908325 945.398804,271.926941 946.990601,275.811707 
	C956.608154,299.283112 966.607910,322.603210 975.874207,346.211639 
	C983.974609,366.849609 988.737549,388.500092 992.824890,410.223694 
	C995.209290,422.896484 996.278870,435.814545 998.028320,448.610168 
	C998.615906,452.907776 999.476501,457.168060 1000.606140,461.222717 
	C1001.000000,489.020905 1001.000000,517.041809 1001.000000,545.531372 
z"/>
<path fill="#858785" opacity="1.000000" stroke="none" 
	d="
M1.000007,457.468658 
	C1.665856,456.054443 2.770853,455.177979 2.932114,454.153046 
	C5.650782,436.873627 8.075638,419.546661 10.922629,402.289124 
	C14.705379,379.359314 21.700035,357.264374 29.335604,335.393494 
	C38.299381,309.718201 49.454403,285.000061 62.894386,261.329834 
	C64.390846,258.694305 65.849022,256.934845 69.032196,259.005341 
	C77.116913,264.264160 85.138214,269.631592 93.388885,274.618011 
	C96.245964,276.344727 96.415131,277.891052 95.171669,280.633972 
	C92.004860,287.619476 88.953957,294.663239 86.070778,301.770538 
	C78.351578,320.799072 70.125320,339.653015 63.253689,358.986206 
	C55.110504,381.896912 49.148518,405.484589 46.006481,429.666901 
	C44.127483,444.128418 42.043713,458.605225 41.155952,473.142578 
	C40.134857,489.863342 39.565113,506.688782 40.224575,523.412537 
	C40.837776,538.963257 43.257725,554.447632 45.003815,569.947510 
	C47.443348,591.603088 52.605610,612.688660 58.845383,633.511719 
	C66.814186,660.104736 76.209373,686.160522 88.941544,710.914246 
	C89.897064,712.771973 90.429901,714.847107 91.540962,717.854431 
	C80.580307,724.322632 69.670685,730.760742 58.301651,737.469971 
	C53.456821,727.843445 48.217194,719.057068 44.480995,709.672241 
	C36.576626,689.817627 28.637720,669.906921 22.263966,649.533997 
	C16.732416,631.853027 12.730715,613.621765 9.186904,595.413025 
	C6.255260,580.349670 4.990978,564.962463 2.933210,549.726196 
	C2.836465,549.009888 2.206784,548.365540 1.412658,547.843811 
	C1.000000,517.979126 1.000000,487.958221 1.000007,457.468658 
z"/>
<path fill="#004F6E" opacity="1.000000" stroke="none" 
	d="
M333.002716,293.001038 
	C352.884216,276.693909 374.614807,264.165375 397.855713,254.122025 
	C418.952087,245.005447 441.019287,239.295547 463.687225,236.214050 
	C483.607208,233.506104 503.649811,233.287155 523.774719,234.853821 
	C546.021057,236.585617 567.711060,240.783249 588.662781,248.195465 
	C619.834167,259.223114 647.956421,275.559967 673.537903,296.743683 
	C702.807678,320.981628 725.106445,350.404633 741.921387,384.114227 
	C754.248108,408.826172 762.068542,435.045227 766.180115,462.436646 
	C768.856445,480.266602 769.872253,498.171051 768.813660,516.047607 
	C767.155334,544.050781 761.546021,571.296509 751.359314,597.636047 
	C741.414124,623.351135 728.016113,646.919250 711.007385,668.539551 
	C694.169922,689.942078 674.550232,708.362061 651.971680,723.560059 
	C620.683472,744.620544 586.524963,758.959961 549.418274,765.798157 
	C529.154541,769.532471 508.577728,771.078369 487.993866,769.883972 
	C459.958221,768.257202 432.612091,762.984741 406.286011,752.750671 
	C381.737274,743.207642 358.784088,730.854492 337.905731,714.835083 
	C322.898285,703.320312 309.388458,690.243713 296.994812,675.825623 
	C282.507202,658.971558 270.532715,640.581055 260.635986,620.867249 
	C249.075775,597.839905 241.442169,573.436707 236.861465,548.014282 
	C233.337738,528.458130 232.300842,508.782898 233.123337,489.050537 
	C234.006210,467.870087 237.785019,447.093750 243.595505,426.645935 
	C252.678238,394.682739 267.834351,365.800446 287.500702,339.256439 
	C300.396637,321.850586 315.728516,306.661530 333.002716,293.001038 
M501.506592,378.986359 
	C498.306671,396.527130 495.066193,414.060608 491.919220,431.610870 
	C489.209717,446.721313 486.704834,461.868927 483.927704,476.966644 
	C481.419006,490.605011 478.748993,504.215332 475.992767,517.806091 
	C473.502533,530.085388 470.864258,542.336060 468.113892,554.559448 
	C467.740997,556.216736 466.335968,557.641846 465.703735,558.686951 
	C462.388641,557.213989 460.096405,555.617981 457.610748,555.215027 
	C452.887695,554.449280 448.057800,554.126099 443.265411,554.049133 
	C433.102386,553.885864 422.931427,554.138977 412.771912,553.889282 
	C410.525177,553.834045 407.971313,552.864990 406.141907,551.522339 
	C397.482361,545.167053 389.005188,538.561951 380.507202,531.988708 
	C377.847565,529.931519 375.242310,529.531555 372.260895,531.320007 
	C369.138885,533.192810 365.825317,534.747803 362.714844,536.638184 
	C340.374817,550.214905 319.218781,565.789124 295.167358,576.486877 
	C292.650208,577.606506 290.154266,579.320862 288.391266,581.391602 
	C287.267761,582.711304 286.752106,585.487549 287.358398,587.079712 
	C287.978424,588.707947 290.130768,590.183777 291.929810,590.800964 
	C293.480682,591.333069 295.673462,591.000854 297.245361,590.297546 
	C305.973419,586.392273 315.041290,582.985474 323.165985,578.047607 
	C339.553711,568.087708 355.451477,557.315918 371.438202,546.708496 
	C373.769226,545.161804 375.317780,544.855896 377.522156,546.724182 
	C381.933624,550.462891 386.652740,553.839539 391.049316,557.594604 
	C400.539185,565.699646 411.258026,569.832214 423.902985,569.078674 
	C431.043213,568.653137 438.230316,568.993164 445.396118,569.025269 
	C449.450592,569.043457 452.542084,570.416626 454.866516,574.160645 
	C457.643860,578.634155 460.857971,582.929016 464.430267,586.795532 
	C470.201324,593.041992 474.522369,592.038391 477.035065,583.659668 
	C478.481659,578.835999 477.967102,573.424927 479.408203,568.598633 
	C483.677521,554.300842 485.851807,539.652771 488.319031,524.988586 
	C492.727875,498.784363 497.989899,472.720612 503.131927,446.644806 
	C504.472504,439.846497 505.213379,432.489929 513.377258,427.084106 
	C514.380432,431.394470 515.566711,434.828430 515.924133,438.346619 
	C516.910706,448.058533 517.349976,457.826874 518.377625,467.533539 
	C519.733765,480.343231 521.500977,493.108856 522.982605,505.906006 
	C524.027527,514.932007 524.846191,523.983887 525.848755,533.015015 
	C526.851135,542.045410 528.040894,551.055603 528.991333,560.091125 
	C529.822083,567.988281 530.242371,575.931335 531.187622,583.812988 
	C532.641907,595.939209 534.360229,608.034241 536.023438,620.134766 
	C537.281921,629.291138 538.637695,638.434082 539.933044,647.585449 
	C540.446777,651.214783 542.334167,654.621460 545.873596,654.365906 
	C547.753235,654.230225 550.315979,650.577087 550.944336,648.099426 
	C557.154236,623.612366 563.126221,599.062805 568.859070,574.459595 
	C569.581360,571.359863 570.751160,570.148132 573.615845,570.025940 
	C581.572266,569.686584 589.525574,569.195801 597.485535,569.040100 
	C606.314636,568.867310 615.151855,569.102051 623.980286,568.912354 
	C625.787170,568.873535 627.959229,568.194275 629.304565,567.041687 
	C642.512817,555.725830 655.587952,544.254333 668.687256,532.811462 
	C674.232910,527.967163 676.045166,528.078247 680.487122,534.145020 
	C687.713806,544.015015 694.668823,554.087280 702.050354,563.838196 
	C704.176575,566.646851 707.143311,569.030579 710.182373,570.840881 
	C711.541199,571.650330 714.497314,571.178223 715.857544,570.143066 
	C716.948669,569.312683 717.396790,566.559143 716.942322,565.006836 
	C716.073181,562.038147 714.703552,559.077515 712.936829,556.533630 
	C704.171509,543.912231 695.851807,530.899719 686.120605,519.055664 
	C677.727173,508.839905 678.344116,508.808533 668.149536,516.149292 
	C656.090332,524.832703 644.675842,534.469910 633.453674,544.235840 
	C626.397400,550.376526 619.759216,554.988525 609.403931,554.305481 
	C595.697021,553.401306 581.846619,554.680298 568.057678,555.007629 
	C564.063538,555.102478 561.092346,556.542786 559.690552,560.620789 
	C557.651978,566.551208 555.624817,572.501038 553.176208,578.265686 
	C552.396362,580.101501 550.290649,581.374207 548.791565,582.904541 
	C547.520447,581.196106 545.469971,579.633972 545.116821,577.753174 
	C543.778992,570.627502 542.931458,563.406128 542.013977,556.206116 
	C541.053589,548.670105 540.236145,541.115906 539.333435,533.572449 
	C538.234009,524.385254 536.936584,515.217651 536.046143,506.010559 
	C535.121704,496.452179 534.776672,486.837219 533.827087,477.281921 
	C532.372986,462.649658 530.644226,448.044342 528.979736,433.433533 
	C528.138428,426.048218 527.206543,418.672882 526.273132,411.298431 
	C524.862244,400.151825 523.429810,389.007904 521.976746,377.866699 
	C520.995789,370.345093 520.146423,362.799042 518.874329,355.325867 
	C518.272522,351.790863 515.803162,349.197144 512.028748,349.171631 
	C508.304077,349.146423 506.535431,352.069153 505.893921,355.291138 
	C504.382111,362.884308 503.160126,370.535187 501.506592,378.986359 
z"/>
<path fill="#004F6E" opacity="1.000000" stroke="none" 
	d="
M295.045654,123.002975 
	C331.490204,103.565346 369.496704,89.237137 409.460327,80.494705 
	C425.228424,77.045288 441.324646,74.235275 457.400604,73.257629 
	C480.782837,71.835648 504.302643,71.568787 527.726135,72.201828 
	C559.729736,73.066772 591.277039,77.874466 621.723022,88.207230 
	C648.510071,97.298203 675.493591,105.940239 700.784790,118.916321 
	C711.110535,124.214134 711.433044,124.641243 705.998108,134.787354 
	C702.567139,141.192398 698.634888,147.340515 694.711609,153.465652 
	C692.519287,156.888199 690.134888,158.686447 685.317871,156.372513 
	C670.703857,149.352524 655.948547,142.541901 640.888367,136.555023 
	C617.177734,127.129303 592.634399,120.189987 567.442261,116.168098 
	C553.111816,113.880264 538.523438,113.034599 524.015564,112.085602 
	C512.091797,111.305634 500.105682,110.858040 488.164124,111.099594 
	C464.484039,111.578606 441.043701,114.075630 417.857147,119.432228 
	C383.810608,127.297707 351.188843,138.852585 320.202148,154.958542 
	C295.460693,167.818420 272.176514,182.954926 250.727188,200.805069 
	C241.051605,208.857086 231.668823,217.260956 222.181976,225.480286 
	C213.300842,216.257767 204.234589,206.842987 196.136185,198.433258 
	C199.864136,194.106766 203.739288,188.090820 209.008072,183.777023 
	C225.375549,170.376190 241.919205,157.130615 259.088440,144.790298 
	C270.336670,136.705704 282.787048,130.293716 295.045654,123.002975 
z"/>
<path fill="#858785" opacity="1.000000" stroke="none" 
	d="
M291.025391,880.107971 
	C291.304901,878.334045 291.332672,876.706726 292.068756,875.518066 
	C296.967773,867.606689 302.199860,859.897217 306.954376,851.902405 
	C310.002289,846.777283 309.996307,846.705078 316.038147,849.433228 
	C333.908569,857.502441 351.630341,865.966980 369.829681,873.225037 
	C392.804382,882.387512 417.052307,887.276917 441.284912,891.802979 
	C449.658813,893.366943 458.323761,893.557617 466.875244,893.942200 
	C479.302338,894.500977 491.753204,895.078491 504.182739,894.894043 
	C519.064636,894.673279 533.969543,894.092285 548.802856,892.900269 
	C582.848572,890.164185 615.202393,880.454102 646.663513,867.654358 
	C673.808289,856.610718 699.741882,843.214966 723.638184,826.095520 
	C733.737244,818.860474 743.829041,811.613831 754.010681,804.496338 
	C760.208008,800.164001 761.223877,800.123718 766.592896,805.183350 
	C774.225769,812.376404 781.568848,819.876953 789.455017,827.659912 
	C778.156921,836.063538 767.219910,844.112122 756.375122,852.283142 
	C733.912842,869.207458 709.791016,883.340210 684.348022,895.254089 
	C653.919495,909.502502 622.399536,920.686829 589.353699,926.875427 
	C571.989258,930.127258 554.361145,932.312195 536.752930,933.824219 
	C519.449646,935.309998 502.002594,936.176270 484.651367,935.800659 
	C459.199829,935.249756 433.635132,933.719116 408.990723,926.818420 
	C385.622101,920.275024 362.362640,913.075073 339.630219,904.618103 
	C323.938599,898.780396 309.216156,890.331604 294.094666,882.979675 
	C292.957031,882.426575 292.092682,881.311401 291.025391,880.107971 
z"/>
<path fill="#22A2C9" opacity="1.000000" stroke="none" 
	d="
M123.269302,713.635559 
	C114.523956,694.856323 104.941673,676.789612 97.734001,657.820557 
	C90.545227,638.901245 85.222855,619.212646 80.069382,599.601807 
	C76.768753,587.041809 74.871071,574.066284 73.045525,561.177795 
	C70.958038,546.439941 69.767181,531.577209 67.937241,516.799622 
	C67.266899,511.386353 70.349022,509.268433 74.613251,509.143036 
	C86.223572,508.801636 97.850525,509.025726 109.999138,509.025726 
	C109.999138,514.697205 109.537720,520.025452 110.084045,525.248291 
	C111.854050,542.169678 113.705559,559.092834 116.066566,575.939453 
	C118.805992,595.486267 123.122688,614.817993 130.746780,633.003967 
	C139.355118,653.537659 149.193848,673.574768 158.996735,693.583252 
	C168.869171,713.733765 180.969864,732.573608 195.953949,749.318481 
	C210.074921,765.098938 224.217041,780.950317 239.489624,795.580750 
	C250.773727,806.390259 263.915009,815.255798 276.171478,825.059143 
	C279.639954,827.833435 283.099304,830.676208 286.153595,833.877930 
	C287.123932,834.895264 287.575623,837.658386 286.891907,838.801636 
	C282.050598,846.896484 276.938568,854.835083 271.731079,862.703125 
	C269.136841,866.622803 266.186127,866.614624 262.179199,863.846252 
	C245.202026,852.117004 228.579788,840.010925 213.351715,825.990906 
	C197.026047,810.960449 181.507309,795.265076 167.393860,778.085754 
	C151.064911,758.209656 136.758896,737.048584 124.157021,714.677795 
	C123.998741,714.396790 123.704124,714.192627 123.269302,713.635559 
z"/>
<path fill="#858785" opacity="1.000000" stroke="none" 
	d="
M459.091797,182.000824 
	C434.728363,186.438797 410.676971,190.683456 388.140015,200.103348 
	C371.357513,207.118027 354.966797,215.208771 338.910583,223.774399 
	C327.998199,229.595917 317.806915,236.837357 307.602539,243.891357 
	C301.817596,247.890305 296.333618,252.458389 291.278717,257.353180 
	C278.785034,269.451050 266.225098,281.523926 254.445740,294.301819 
	C245.583817,303.914978 237.845200,314.569611 229.704193,324.838043 
	C227.094864,328.129272 224.506134,328.687317 220.782257,326.442871 
	C213.503860,322.056030 205.961655,318.109283 198.614914,313.832153 
	C196.223495,312.440002 195.102417,310.807281 197.448517,307.866577 
	C208.071793,294.550873 218.156799,280.797302 229.012115,267.678375 
	C235.645981,259.661224 242.845627,251.966019 250.638611,245.086151 
	C264.670166,232.698715 278.657166,220.063019 293.928040,209.331512 
	C309.905640,198.103394 326.947235,188.176804 344.290131,179.154541 
	C369.396851,166.093338 395.987213,156.479523 423.861023,151.136078 
	C438.149658,148.396912 452.666809,146.747635 467.136322,145.091995 
	C475.804932,144.100098 484.580933,144.046997 493.669128,143.552322 
	C493.669128,156.068527 493.669128,167.775757 493.669128,179.163864 
	C482.150299,180.120712 470.844299,181.059875 459.091797,182.000824 
z"/>
<path fill="#22A2C9" opacity="1.000000" stroke="none" 
	d="
M509.000336,836.150208 
	C509.017700,828.175903 510.035797,827.832825 517.384033,826.878052 
	C535.843628,824.479553 554.356873,822.140625 572.603333,818.536194 
	C602.067322,812.715942 629.552917,801.189392 655.923401,786.991394 
	C673.757202,777.389587 690.828979,766.540894 706.123413,753.226562 
	C717.226562,743.560974 728.141907,733.589722 738.284546,722.939148 
	C746.506592,714.305237 753.546021,704.529602 760.930481,695.119507 
	C765.145386,689.748352 768.899780,684.015686 773.119812,678.648926 
	C773.802063,677.781311 776.237732,677.260315 777.180176,677.791260 
	C785.398499,682.420593 793.558777,687.176453 801.459167,692.320312 
	C802.572205,693.044922 803.103394,696.570007 802.347290,697.938843 
	C798.435303,705.020264 794.842834,712.535767 789.615967,718.583618 
	C775.580139,734.823975 761.227417,750.847107 746.145691,766.111877 
	C729.177307,783.286377 709.581116,797.308777 689.049805,810.010498 
	C659.652649,828.197083 628.648438,842.763550 594.969055,850.957092 
	C577.587463,855.185730 560.012939,858.734619 542.389099,861.808350 
	C533.187744,863.413025 523.690002,863.310852 514.328430,864.009949 
	C512.388733,864.154785 510.459106,864.433899 507.767487,864.736145 
	C508.178162,855.371033 508.589264,845.996887 509.000336,836.150208 
z"/>
<path fill="#004F6E" opacity="1.000000" stroke="none" 
	d="
M854.317505,671.412781 
	C868.561218,641.501343 879.097168,610.723083 884.969238,578.494690 
	C888.191833,560.807983 890.331787,542.925171 893.130371,525.157593 
	C893.312744,523.999634 894.938904,522.191162 895.922607,522.171875 
	C906.913208,521.956238 917.909729,522.072021 928.904053,522.005249 
	C931.831360,521.987366 932.125427,523.770935 931.982361,525.947266 
	C931.319458,536.026184 931.315491,546.209167 929.787292,556.156982 
	C927.157837,573.273254 924.592407,590.515991 920.121765,607.202454 
	C914.829712,626.954956 908.382263,646.499573 900.952148,665.555969 
	C886.125000,703.583557 865.135498,738.276978 840.440430,770.681274 
	C832.628113,780.932495 823.745789,790.369446 815.329529,800.158691 
	C812.442017,803.517212 809.482544,806.813782 806.178650,810.567261 
	C797.128906,801.533386 788.504395,793.028625 780.090454,784.320374 
	C779.438599,783.645630 779.726257,781.100769 780.487915,780.172302 
	C787.732239,771.343201 795.288086,762.769897 802.534485,753.942505 
	C818.333069,734.696960 831.971619,713.977783 843.904297,692.144165 
	C847.550171,685.473145 850.750854,678.558899 854.317505,671.412781 
z"/>
<path fill="#22A2C9" opacity="1.000000" stroke="none" 
	d="
M779.645996,333.721313 
	C776.635620,331.491486 773.543335,329.387085 771.336670,326.585205 
	C761.425293,314.001007 752.255310,300.803772 741.913025,288.594208 
	C720.623535,263.461060 695.609436,242.631241 667.108826,225.971252 
	C644.227600,212.596069 620.224548,201.882339 594.955322,193.920609 
	C577.532959,188.431213 559.877930,184.091415 541.702332,181.954834 
	C533.604614,181.002914 525.546326,179.715317 517.236450,178.547211 
	C517.236450,167.294083 517.236450,156.018997 517.236450,144.032623 
	C524.621826,144.032623 532.185364,143.102478 539.430298,144.226151 
	C554.542358,146.569992 569.613464,149.475845 584.471741,153.094025 
	C613.297241,160.113434 641.413879,169.311249 667.729248,183.323563 
	C687.518250,193.860748 706.120972,206.252716 723.150330,220.801926 
	C737.435486,233.006577 751.796753,245.261337 764.859741,258.721191 
	C780.337402,274.669159 794.625610,291.815552 805.148376,311.656342 
	C806.325928,313.876648 806.784119,316.478424 807.321960,318.125549 
	C797.704773,323.540710 788.838257,328.533142 779.645996,333.721313 
z"/>
<path fill="#858785" opacity="1.000000" stroke="none" 
	d="
M816.843994,669.997925 
	C810.767334,667.645630 805.106384,665.293762 799.449036,662.933289 
	C799.304077,662.872803 799.213074,662.693665 799.073547,662.607727 
	C786.565063,654.908630 786.507568,654.881836 792.790894,641.568542 
	C804.704224,616.326233 813.272339,590.051208 818.093384,562.516174 
	C821.053467,545.610046 823.221985,528.681763 823.023987,511.485229 
	C822.900879,500.790405 823.786377,490.020630 822.810852,479.414032 
	C821.418396,464.273560 819.258850,449.154724 816.484619,434.201477 
	C812.026917,410.174561 802.657043,387.674103 793.604248,365.109833 
	C792.459717,362.257050 791.796631,359.211060 790.738220,355.679779 
	C799.567322,350.241791 808.323975,344.688721 817.315674,339.546783 
	C818.259521,339.007080 821.518494,340.447113 822.131897,341.723785 
	C827.282959,352.443329 832.538574,363.154907 836.864624,374.220032 
	C846.231079,398.177094 852.129150,423.069733 856.125549,448.482483 
	C858.841553,465.753174 860.826782,483.004700 861.117188,500.522247 
	C861.466309,521.582703 858.997070,542.230591 855.238770,562.908630 
	C851.019653,586.122009 845.184753,608.832642 836.992737,630.911499 
	C832.624573,642.684387 827.591370,654.220093 822.511108,665.709412 
	C821.696167,667.552307 819.056335,668.588257 816.843994,669.997925 
z"/>
<path fill="#004F6E" opacity="1.000000" stroke="none" 
	d="
M212.341583,349.653931 
	C215.505554,350.874512 214.615707,352.695099 213.759720,354.642548 
	C208.163269,367.374847 202.288269,379.997375 197.122345,392.903137 
	C190.216171,410.156525 186.260620,428.243835 182.927841,446.499603 
	C178.556244,470.445618 177.344666,494.582855 178.049316,518.831909 
	C178.719910,541.908813 182.044769,564.706848 189.010925,586.691406 
	C195.248184,606.375610 202.844986,625.634949 210.086624,644.990112 
	C211.514969,648.807800 211.056671,651.685059 207.696243,653.523682 
	C200.897537,657.243713 194.044830,660.946228 186.922958,663.969482 
	C180.895370,666.528137 178.745880,665.628113 175.947739,659.545044 
	C171.941666,650.835999 168.249344,641.954529 164.953201,632.952576 
	C156.870972,610.879761 149.727554,588.498657 145.700058,565.281677 
	C144.319229,557.321594 143.240631,549.208801 143.120895,541.149475 
	C142.779236,518.155640 142.522522,495.140961 143.120285,472.157593 
	C143.908493,441.852081 149.422974,412.351624 160.962372,384.164551 
	C167.916672,367.177338 175.023224,350.252502 182.440720,332.385864 
	C192.692551,338.294556 202.367905,343.871033 212.341583,349.653931 
z"/>
<path fill="#000000" opacity="1.000000" stroke="none" 
	d="
M501.663757,378.574554 
	C503.160126,370.535187 504.382111,362.884308 505.893921,355.291138 
	C506.535431,352.069153 508.304077,349.146423 512.028748,349.171631 
	C515.803162,349.197144 518.272522,351.790863 518.874329,355.325867 
	C520.146423,362.799042 520.995789,370.345093 521.976746,377.866699 
	C523.429810,389.007904 524.862244,400.151825 526.273132,411.298431 
	C527.206543,418.672882 528.138428,426.048218 528.979736,433.433533 
	C530.644226,448.044342 532.372986,462.649658 533.827087,477.281921 
	C534.776672,486.837219 535.121704,496.452179 536.046143,506.010559 
	C536.936584,515.217651 538.234009,524.385254 539.333435,533.572449 
	C540.236145,541.115906 541.053589,548.670105 542.013977,556.206116 
	C542.931458,563.406128 543.778992,570.627502 545.116821,577.753174 
	C545.469971,579.633972 547.520447,581.196106 548.791565,582.904541 
	C550.290649,581.374207 552.396362,580.101501 553.176208,578.265686 
	C555.624817,572.501038 557.651978,566.551208 559.690552,560.620789 
	C561.092346,556.542786 564.063538,555.102478 568.057678,555.007629 
	C581.846619,554.680298 595.697021,553.401306 609.403931,554.305481 
	C619.759216,554.988525 626.397400,550.376526 633.453674,544.235840 
	C644.675842,534.469910 656.090332,524.832703 668.149536,516.149292 
	C678.344116,508.808533 677.727173,508.839905 686.120605,519.055664 
	C695.851807,530.899719 704.171509,543.912231 712.936829,556.533630 
	C714.703552,559.077515 716.073181,562.038147 716.942322,565.006836 
	C717.396790,566.559143 716.948669,569.312683 715.857544,570.143066 
	C714.497314,571.178223 711.541199,571.650330 710.182373,570.840881 
	C707.143311,569.030579 704.176575,566.646851 702.050354,563.838196 
	C694.668823,554.087280 687.713806,544.015015 680.487122,534.145020 
	C676.045166,528.078247 674.232910,527.967163 668.687256,532.811462 
	C655.587952,544.254333 642.512817,555.725830 629.304565,567.041687 
	C627.959229,568.194275 625.787170,568.873535 623.980286,568.912354 
	C615.151855,569.102051 606.314636,568.867310 597.485535,569.040100 
	C589.525574,569.195801 581.572266,569.686584 573.615845,570.025940 
	C570.751160,570.148132 569.581360,571.359863 568.859070,574.459595 
	C563.126221,599.062805 557.154236,623.612366 550.944336,648.099426 
	C550.315979,650.577087 547.753235,654.230225 545.873596,654.365906 
	C542.334167,654.621460 540.446777,651.214783 539.933044,647.585449 
	C538.637695,638.434082 537.281921,629.291138 536.023438,620.134766 
	C534.360229,608.034241 532.641907,595.939209 531.187622,583.812988 
	C530.242371,575.931335 529.822083,567.988281 528.991333,560.091125 
	C528.040894,551.055603 526.851135,542.045410 525.848755,533.015015 
	C524.846191,523.983887 524.027527,514.932007 522.982605,505.906006 
	C521.500977,493.108856 519.733765,480.343231 518.377625,467.533539 
	C517.349976,457.826874 516.910706,448.058533 515.924133,438.346619 
	C515.566711,434.828430 514.380432,431.394470 513.377258,427.084106 
	C505.213379,432.489929 504.472504,439.846497 503.131927,446.644806 
	C497.989899,472.720612 492.727875,498.784363 488.319031,524.988586 
	C485.851807,539.652771 483.677521,554.300842 479.408203,568.598633 
	C477.967102,573.424927 478.481659,578.835999 477.035065,583.659668 
	C474.522369,592.038391 470.201324,593.041992 464.430267,586.795532 
	C460.857971,582.929016 457.643860,578.634155 454.866516,574.160645 
	C452.542084,570.416626 449.450592,569.043457 445.396118,569.025269 
	C438.230316,568.993164 431.043213,568.653137 423.902985,569.078674 
	C411.258026,569.832214 400.539185,565.699646 391.049316,557.594604 
	C386.652740,553.839539 381.933624,550.462891 377.522156,546.724182 
	C375.317780,544.855896 373.769226,545.161804 371.438202,546.708496 
	C355.451477,557.315918 339.553711,568.087708 323.165985,578.047607 
	C315.041290,582.985474 305.973419,586.392273 297.245361,590.297546 
	C295.673462,591.000854 293.480682,591.333069 291.929810,590.800964 
	C290.130768,590.183777 287.978424,588.707947 287.358398,587.079712 
	C286.752106,585.487549 287.267761,582.711304 288.391266,581.391602 
	C290.154266,579.320862 292.650208,577.606506 295.167358,576.486877 
	C319.218781,565.789124 340.374817,550.214905 362.714844,536.638184 
	C365.825317,534.747803 369.138885,533.192810 372.260895,531.320007 
	C375.242310,529.531555 377.847565,529.931519 380.507202,531.988708 
	C389.005188,538.561951 397.482361,545.167053 406.141907,551.522339 
	C407.971313,552.864990 410.525177,553.834045 412.771912,553.889282 
	C422.931427,554.138977 433.102386,553.885864 443.265411,554.049133 
	C448.057800,554.126099 452.887695,554.449280 457.610748,555.215027 
	C460.096405,555.617981 462.388641,557.213989 465.703735,558.686951 
	C466.335968,557.641846 467.740997,556.216736 468.113892,554.559448 
	C470.864258,542.336060 473.502533,530.085388 475.992767,517.806091 
	C478.748993,504.215332 481.419006,490.605011 483.927704,476.966644 
	C486.704834,461.868927 489.209717,446.721313 491.919220,431.610870 
	C495.066193,414.060608 498.306671,396.527130 501.663757,378.574554 
z"/>
</svg>